<?xml version="1.0" encoding="UTF-8"?>
<!-- Generator: Adobe Illustrator 27.0.1, SVG Export Plug-In . SVG Version: 6.00 Build 0)  -->
<svg xmlns="http://www.w3.org/2000/svg" xmlns:xlink="http://www.w3.org/1999/xlink" version="1.1" id="Layer_1" x="0px" y="0px" viewBox="0 0 346.7 94.1" style="enable-background:new 0 0 346.7 94.1;" xml:space="preserve">
<style type="text/css">
	.st0{fill:#0EA7B6;}
	.st1{fill:#14204A;}
	.st2{fill:#A8A8A8;}
</style>
<g id="logo" transform="translate(-6.62 -2.49)">
	<path id="Path_1" class="st0" d="M66.9,25.5H45.4L56.1,46L66.9,25.5z"></path>
	<path id="Path_2" class="st0" d="M79.8,47.5L69,27L58.3,47.5H79.8z"></path>
	<path id="Path_3" class="st0" d="M56.1,2.5L45.4,22.9h21.5L56.1,2.5z"></path>
	<path id="Path_4" class="st0" d="M43.2,27L32.4,47.5H54L43.2,27z"></path>
	<path id="Path_5" class="st0" d="M54,50.1H32.4l10.8,20.5L54,50.1z"></path>
	<path id="Path_6" class="st0" d="M41.1,72L30.3,51.5L19.5,72H41.1z"></path>
	<path id="Path_7" class="st0" d="M19.5,74.6l10.8,20.5l10.8-20.5H19.5z"></path>
	<path id="Path_8" class="st0" d="M28.2,96.5L17.4,76.1L6.6,96.5H28.2z"></path>
	<path id="Path_9" class="st0" d="M105.6,96.5H84.1l10.8-20.5L105.6,96.5z"></path>
	<path id="Path_10" class="st1" d="M66.9,72H45.3l10.8-20.5L66.9,72z"></path>
	<path id="Path_11" class="st0" d="M92.7,74.6L82,95.1L71.2,74.6H92.7z"></path>
	<path id="Path_12" class="st0" d="M71.2,72L82,51.5L92.7,72H71.2z"></path>
	<path id="Path_13" class="st0" d="M79.8,50.1L69,70.5L58.3,50.1H79.8z"></path>
	<g id="Group_1" transform="translate(122.339 12.824)">
		<path id="Path_14" class="st1" d="M17.4,1.1L0,49.6h10.7l3.5-10.3h14.5l-0.3-0.9c-0.3-0.8-0.6-1.6-0.9-2.3    c-0.4-0.8-0.8-1.6-1.4-2.3c-0.6-0.7-1.2-1.3-2-1.8c-0.9-0.5-1.8-0.8-2.8-0.8h-4.6l5.6-16.7l11.6,34.7l0.2,0.5H45L27.5,1.1    L17.4,1.1L17.4,1.1z"></path>
		<path id="Path_15" class="st1" d="M52,37.9c3.9,2.2,8.1,3.5,12.5,3.9c3.5,0,6-1.2,6-4.4c0-8.5-20.4-9.5-20.4-23.6    C50.2,8.6,53.6,0,67,0c4.9,0,9.7,1.2,14.1,3.4L78.3,12c-3.5-1.7-7.4-2.7-11.3-2.9c-4.9,0-5.9,2.7-5.9,4.2    c0,7.3,21.3,9.7,21.3,23.7c0,9.5-8,13.9-17.9,13.9c-5.6-0.3-11.1-1.8-16-4.4L52,37.9z"></path>
		<path id="Path_16" class="st1" d="M105,1.2c13.6,0,19.8,6.4,19.8,15.9c0,9.1-6.4,15.9-17.7,15.9h-5v16.7H91.3V1.2H105z     M102.1,10.2v13.7h4c3.4,0.4,6.5-2.1,6.8-5.5c0-0.4,0-0.9,0-1.3c0-4.1-2-6.8-7.5-6.8L102.1,10.2L102.1,10.2z"></path>
		<path id="Path_17" class="st1" d="M143.8,1.2v48.5H133V1.2H143.8z"></path>
		<path id="Path_18" class="st1" d="M180.8,49.7l-8.6-17.1h-5.8v17.1h-10.8V1.2h14.1c13.3,0,19.5,6.4,19.5,15.7    c0.2,5.2-2.4,10.1-6.7,12.9l10.3,19.9L180.8,49.7z M166.4,10.2v13.3h4c3.3,0.4,6.4-1.9,6.8-5.3c0.1-0.5,0.1-0.9,0-1.4    c0-3.9-1.7-6.6-7.1-6.6L166.4,10.2z"></path>
		<path id="Path_19" class="st1" d="M230,10.2h-18.8v10.2h15.1v9.1h-15.1v11.2H231v9.1h-30.6V1.2H230L230,10.2L230,10.2z"></path>
	</g>
	<g id="Group_2" transform="translate(123.183 75.269)">
		<path id="Path_20" class="st2" d="M0.7,16.7c1.6,1.1,3.4,1.7,5.3,1.8c2.2,0,3.9-1,3.9-3.3c0-4.6-9.3-4.4-9.3-10.3    C0.6,3.1,1.9,0,6.7,0c1.8,0,3.6,0.5,5.2,1.4l-0.6,1.9C9.9,2.5,8.3,2,6.7,2C3.7,2,3,3.8,3,4.9c0,4.3,9.4,4.3,9.4,10.3    c0,3.7-3,5.3-6.5,5.3c-2.1-0.1-4.2-0.7-6-1.9L0.7,16.7z"></path>
		<path id="Path_21" class="st2" d="M27.9,10c0-5.6,3.3-10,9-10c5.5,0,8.7,4.5,8.7,10.3c0,5.8-3.1,10.1-8.5,10.1    C31.2,20.5,27.9,16.1,27.9,10z M43.1,10.4c0-4.8-2.3-8.4-6.2-8.4c-4.2,0-6.5,3.5-6.5,8c0,4.9,2.4,8.5,6.7,8.5    C40.9,18.5,43.1,14.9,43.1,10.4L43.1,10.4z"></path>
		<path id="Path_22" class="st2" d="M73.6,2.5h-8.8v6.4h6.9v2h-6.9V20h-2.4V0.5h11.1L73.6,2.5L73.6,2.5z"></path>
		<path id="Path_23" class="st2" d="M102,2.5H96V20h-2.4V2.5h-6v-2H102V2.5z"></path>
		<path id="Path_24" class="st2" d="M122,20l-6.1-19.5h2.4l5,16.2l5.2-16.2h1.8l5.3,16.2l4.9-16.2h2.4L136.9,20h-2.2l-5.3-15.7    L124.2,20H122z"></path>
		<path id="Path_25" class="st2" d="M163,0.5h2.5l7.2,19.5h-2.3l-2.2-5.9h-7.7l-2.1,5.9h-2.3L163,0.5z M161.2,12.2h6.3l-3.2-8.6    L161.2,12.2z"></path>
		<path id="Path_26" class="st2" d="M198.9,20l-4.8-8h-3.2v8h-2.4V0.5h4.8c4.9,0,6.9,2.3,6.9,5.6c0.1,2.5-1.5,4.8-3.9,5.6l5.1,8.4    L198.9,20L198.9,20z M190.9,2.5V10h2.7c2,0.2,3.9-1.2,4.1-3.3c0-0.2,0-0.3,0-0.5c0-2.1-1-3.8-4.4-3.8L190.9,2.5z"></path>
		<path id="Path_27" class="st2" d="M228.8,2.5H220v6.4h6.9v2H220V18h9.3v2h-11.6V0.5h11.1L228.8,2.5L228.8,2.5z"></path>
	</g>
</g>
</svg>
